<svg xmlns="http://www.w3.org/2000/svg" version="1.1" xmlns:xlink="http://www.w3.org/1999/xlink" xmlns:svgjs="http://svgjs.dev/svgjs" width="1500" height="1500" viewBox="0 0 1500 1500"><rect width="1500" height="1500" fill="#ffffff"></rect><g transform="matrix(0.6666666666666666,0,0,0.6666666666666666,249.82791105121294,543.4952596078432)"><svg viewBox="0 0 371 153" data-background-color="#ffffff" preserveAspectRatio="xMidYMid meet" height="618" width="1500" xmlns="http://www.w3.org/2000/svg" xmlns:xlink="http://www.w3.org/1999/xlink"><g id="tight-bounds" transform="matrix(1,0,0,1,0.06384499999998638,0.18743999999999517)"><svg viewBox="0 0 370.87231 152.62512" height="152.62512" width="370.87231"><g><svg></svg></g><g><svg viewBox="0 0 370.87231 152.62512" height="152.62512" width="370.87231"><g transform="matrix(1,0,0,1,-12.32385,-51.918949999999995)"><path d="M12.324 195.281v-143.362h370.872v143.362l-14.406 0 0-4.866h9.54v-133.63h-361.14v133.63h20.505l0 4.866z" fill="#31302e" fill-rule="nonzero" stroke="none" stroke-width="1" stroke-linecap="butt" stroke-linejoin="miter" stroke-miterlimit="10" stroke-dasharray="" stroke-dashoffset="0" font-family="none" font-weight="none" font-size="none" text-anchor="none" style="mix-blend-mode: normal" data-fill-palette-color="tertiary"></path><g><path transform="translate(51.41968,199.01831) scale(0.46048,0.46048)" d="M28.7 0h-26.8v-2.1h0.65c0.767 0 1.46-0.083 2.08-0.25 0.613-0.167 1.103-0.51 1.47-1.03 0.367-0.513 0.55-1.287 0.55-2.32v0-24.3c0-1.067-0.183-1.85-0.55-2.35-0.367-0.5-0.857-0.833-1.47-1-0.62-0.167-1.313-0.25-2.08-0.25v0h-0.65v-2.1h14.55v2.1h-0.65c-0.733 0-1.407 0.073-2.02 0.22-0.62 0.153-1.12 0.47-1.5 0.95-0.387 0.487-0.58 1.23-0.58 2.23v0 27.7h9.85c1 0 1.81-0.227 2.43-0.68 0.613-0.447 1.07-1.02 1.37-1.72 0.3-0.7 0.5-1.4 0.6-2.1v0l0.5-3.75h2.6zM50.37 0.5v0c-3.633 0-6.473-1.2-8.52-3.6-2.053-2.4-3.08-5.767-3.08-10.1v0c0-4.667 0.967-8.183 2.9-10.55 1.933-2.367 4.667-3.55 8.2-3.55v0c3.233 0 5.777 1 7.63 3 1.847 2 2.77 4.983 2.77 8.95v0 2.3h-16.65c0.067 3.633 0.727 6.273 1.98 7.92 1.247 1.653 3.07 2.48 5.47 2.48v0c1.733 0 3.21-0.36 4.43-1.08 1.213-0.713 2.12-1.52 2.72-2.42v0c0.233 0.1 0.45 0.3 0.65 0.6 0.2 0.3 0.3 0.667 0.3 1.1v0c0 0.667-0.317 1.383-0.95 2.15-0.633 0.767-1.6 1.423-2.9 1.97-1.3 0.553-2.95 0.83-4.95 0.83zM43.72-15.75h11.5c0-2.667-0.407-4.81-1.22-6.43-0.82-1.613-2.23-2.42-4.23-2.42v0c-1.833 0-3.257 0.757-4.27 2.27-1.02 1.52-1.613 3.713-1.78 6.58zM77.9 0.5v0c-1.467 0-2.793-0.293-3.98-0.88-1.18-0.58-2.103-1.463-2.77-2.65-0.667-1.18-1-2.67-1-4.47v0c0-2.667 0.94-4.633 2.82-5.9 1.887-1.267 4.747-1.967 8.58-2.1v0l4.15-0.15v-3c0-1.2-0.1-2.26-0.3-3.18-0.2-0.913-0.633-1.637-1.3-2.17-0.667-0.533-1.683-0.8-3.05-0.8v0c-1.267 0-2.233 0.233-2.9 0.7-0.667 0.467-1.11 1.107-1.33 1.92-0.213 0.82-0.32 1.763-0.32 2.83v0c-1.4 0-2.46-0.243-3.18-0.73-0.713-0.48-1.07-1.287-1.07-2.42v0c0-1.167 0.407-2.1 1.22-2.8 0.82-0.7 1.913-1.21 3.28-1.53 1.367-0.313 2.867-0.47 4.5-0.47v0c3.067 0 5.357 0.65 6.87 1.95 1.52 1.3 2.28 3.533 2.28 6.7v0 12.95c0 0.933 0.1 1.657 0.3 2.17 0.2 0.52 0.533 0.887 1 1.1 0.467 0.22 1.067 0.33 1.8 0.33v0h0.15v2.1h-6.75l-0.8-4.3h-0.4c-0.7 0.933-1.383 1.757-2.05 2.47-0.667 0.72-1.443 1.287-2.33 1.7-0.88 0.42-2.02 0.63-3.42 0.63zM79.05-2.6v0c1.367 0 2.54-0.283 3.52-0.85 0.987-0.567 1.753-1.377 2.3-2.43 0.553-1.047 0.83-2.27 0.83-3.67v0-4.05l-3.2 0.15c-1.9 0.067-3.393 0.35-4.48 0.85-1.08 0.5-1.853 1.19-2.32 2.07-0.467 0.887-0.7 1.98-0.7 3.28v0c0 1.033 0.15 1.893 0.45 2.58 0.3 0.68 0.75 1.193 1.35 1.54 0.6 0.353 1.35 0.53 2.25 0.53zM116.77 0h-14.45v-2.1h0.15c0.767 0 1.46-0.083 2.08-0.25 0.613-0.167 1.103-0.51 1.47-1.03 0.367-0.513 0.55-1.287 0.55-2.32v0-15.6c0-1-0.19-1.743-0.57-2.23-0.387-0.48-0.887-0.797-1.5-0.95-0.62-0.147-1.297-0.22-2.03-0.22v0h-0.15v-2.1h7.7l0.95 4.95h0.25c0.433-1 0.9-1.917 1.4-2.75 0.5-0.833 1.167-1.493 2-1.98 0.833-0.48 1.983-0.72 3.45-0.72v0c1.833 0 3.193 0.317 4.08 0.95 0.88 0.633 1.32 1.533 1.32 2.7v0c0 1.033-0.357 1.883-1.07 2.55-0.72 0.667-1.913 1-3.58 1v0c0-1.367-0.2-2.36-0.6-2.98-0.4-0.613-1.083-0.92-2.05-0.92v0c-0.933 0-1.717 0.367-2.35 1.1-0.633 0.733-1.133 1.667-1.5 2.8-0.367 1.133-0.633 2.31-0.8 3.53-0.167 1.213-0.25 2.303-0.25 3.27v0 7.85c0 0.967 0.193 1.69 0.58 2.17 0.38 0.487 0.88 0.803 1.5 0.95 0.613 0.153 1.287 0.23 2.02 0.23v0h1.4zM143.94 0h-13.45v-2.1h0.4c0.767 0 1.46-0.083 2.08-0.25 0.613-0.167 1.103-0.51 1.47-1.03 0.367-0.513 0.55-1.287 0.55-2.32v0-15.6c0-1-0.183-1.743-0.55-2.23-0.367-0.48-0.85-0.797-1.45-0.95-0.6-0.147-1.267-0.22-2-0.22v0h-0.25v-2.1h8.1l0.65 4.05h0.25c1.033-1.867 2.193-3.093 3.48-3.68 1.28-0.58 2.72-0.87 4.32-0.87v0c2.633 0 4.693 0.773 6.18 2.32 1.48 1.553 2.22 4.047 2.22 7.48v0 11.8c0 1.033 0.16 1.807 0.48 2.32 0.313 0.52 0.753 0.863 1.32 1.03 0.567 0.167 1.217 0.25 1.95 0.25v0h0.25v2.1h-8.7v-17.25c0-2.167-0.407-3.85-1.22-5.05-0.82-1.2-2.247-1.8-4.28-1.8v0c-1.5 0-2.69 0.373-3.57 1.12-0.887 0.753-1.52 1.747-1.9 2.98-0.387 1.233-0.58 2.567-0.58 4v0 10.55c0 0.967 0.183 1.69 0.55 2.17 0.367 0.487 0.85 0.803 1.45 0.95 0.6 0.153 1.267 0.23 2 0.23v0h0.25zM202.69 0h-15.55v-2.1h0.65c0.733 0 1.41-0.077 2.03-0.23 0.613-0.147 1.113-0.463 1.5-0.95 0.38-0.48 0.57-1.203 0.57-2.17v0-24.75c0-1-0.19-1.743-0.57-2.23-0.387-0.48-0.887-0.797-1.5-0.95-0.62-0.147-1.297-0.22-2.03-0.22v0h-0.65v-2.1h25.2l0.25 8.75h-2.6l-0.25-2.15c-0.133-1.133-0.54-2.1-1.22-2.9-0.687-0.8-1.813-1.2-3.38-1.2v0h-8.2v14.45h12.05v2.45h-12.05v10.6c0 1.033 0.183 1.807 0.55 2.32 0.367 0.52 0.867 0.863 1.5 1.03 0.633 0.167 1.317 0.25 2.05 0.25v0h1.65zM229.86 0.5v0c-1.467 0-2.79-0.293-3.97-0.88-1.187-0.58-2.113-1.463-2.78-2.65-0.667-1.18-1-2.67-1-4.47v0c0-2.667 0.943-4.633 2.83-5.9 1.88-1.267 4.737-1.967 8.57-2.1v0l4.15-0.15v-3c0-1.2-0.1-2.26-0.3-3.18-0.2-0.913-0.633-1.637-1.3-2.17-0.667-0.533-1.683-0.8-3.05-0.8v0c-1.267 0-2.233 0.233-2.9 0.7-0.667 0.467-1.107 1.107-1.32 1.92-0.22 0.82-0.33 1.763-0.33 2.83v0c-1.4 0-2.457-0.243-3.17-0.73-0.72-0.48-1.08-1.287-1.08-2.42v0c0-1.167 0.41-2.1 1.23-2.8 0.813-0.7 1.903-1.21 3.27-1.53 1.367-0.313 2.867-0.47 4.5-0.47v0c3.067 0 5.36 0.65 6.88 1.95 1.513 1.3 2.27 3.533 2.27 6.7v0 12.95c0 0.933 0.1 1.657 0.3 2.17 0.2 0.52 0.533 0.887 1 1.1 0.467 0.22 1.067 0.33 1.8 0.33v0h0.15v2.1h-6.75l-0.8-4.3h-0.4c-0.7 0.933-1.383 1.757-2.05 2.47-0.667 0.72-1.44 1.287-2.32 1.7-0.887 0.42-2.03 0.63-3.43 0.63zM231.01-2.6v0c1.367 0 2.543-0.283 3.53-0.85 0.98-0.567 1.747-1.377 2.3-2.43 0.547-1.047 0.82-2.27 0.82-3.67v0-4.05l-3.2 0.15c-1.9 0.067-3.39 0.35-4.47 0.85-1.087 0.5-1.863 1.19-2.33 2.07-0.467 0.887-0.7 1.98-0.7 3.28v0c0 1.033 0.15 1.893 0.45 2.58 0.3 0.68 0.75 1.193 1.35 1.54 0.6 0.353 1.35 0.53 2.25 0.53zM263.14 0.5v0c-1.667 0-3.117-0.2-4.35-0.6-1.233-0.4-2.193-0.993-2.88-1.78-0.68-0.78-1.02-1.753-1.02-2.92v0c0-0.9 0.183-1.6 0.55-2.1 0.367-0.5 0.79-0.85 1.27-1.05 0.487-0.2 0.93-0.3 1.33-0.3v0c0 1.733 0.39 3.223 1.17 4.47 0.787 1.253 2.197 1.88 4.23 1.88v0c1.767 0 3.123-0.427 4.07-1.28 0.953-0.847 1.43-1.937 1.43-3.27v0c0-0.833-0.177-1.517-0.53-2.05-0.347-0.533-0.963-1.06-1.85-1.58-0.88-0.513-2.137-1.12-3.77-1.82v0c-1.7-0.767-3.11-1.51-4.23-2.23-1.113-0.713-1.947-1.547-2.5-2.5-0.547-0.947-0.82-2.137-0.82-3.57v0c0-2.267 0.857-4.01 2.57-5.23 1.72-1.213 3.997-1.82 6.83-1.82v0c1.6 0 2.94 0.207 4.02 0.62 1.087 0.42 1.903 0.98 2.45 1.68 0.553 0.7 0.83 1.467 0.83 2.3v0c0 0.9-0.31 1.623-0.93 2.17-0.613 0.553-1.503 0.83-2.67 0.83v0c0-1.667-0.35-2.967-1.05-3.9-0.7-0.933-1.783-1.4-3.25-1.4v0c-1.7 0-2.917 0.373-3.65 1.12-0.733 0.753-1.1 1.713-1.1 2.88v0c0 1.267 0.473 2.24 1.42 2.92 0.953 0.687 2.547 1.48 4.78 2.38v0c1.767 0.733 3.2 1.467 4.3 2.2 1.1 0.733 1.907 1.583 2.42 2.55 0.52 0.967 0.78 2.15 0.78 3.55v0c0 2.6-0.9 4.557-2.7 5.87-1.8 1.32-4.183 1.98-7.15 1.98zM292.06 0.5v0c-2.533 0-4.373-0.577-5.52-1.73-1.153-1.147-1.73-3.153-1.73-6.02v0-16.7h-3.8v-2c0.6 0 1.267-0.127 2-0.38 0.733-0.247 1.367-0.653 1.9-1.22v0c0.567-0.6 1.033-1.333 1.4-2.2 0.367-0.867 0.667-1.933 0.9-3.2v0h2.3v6.15h6.55v2.85h-6.55v16.85c0 1.7 0.35 2.95 1.05 3.75 0.7 0.8 1.617 1.2 2.75 1.2v0c0.6 0 1.15-0.033 1.65-0.1 0.5-0.067 1.017-0.15 1.55-0.25v0 2.2c-0.433 0.2-1.083 0.383-1.95 0.55-0.867 0.167-1.7 0.25-2.5 0.25zM331.86 0l-6.55-22.05c-0.233-0.7-0.51-1.243-0.83-1.63-0.313-0.38-0.68-0.647-1.1-0.8-0.413-0.147-0.953-0.22-1.62-0.22v0h-0.15v-2.1h12.35v2.1h-0.65c-1 0-1.75 0.14-2.25 0.42-0.5 0.287-0.75 0.847-0.75 1.68v0c0 0.267 0.04 0.6 0.12 1 0.087 0.4 0.18 0.783 0.28 1.15v0l2.35 8.4c0.233 0.8 0.457 1.69 0.67 2.67 0.22 0.987 0.43 1.92 0.63 2.8 0.2 0.887 0.35 1.613 0.45 2.18v0h0.15c0.1-0.567 0.257-1.25 0.47-2.05 0.22-0.8 0.47-1.65 0.75-2.55 0.287-0.9 0.563-1.75 0.83-2.55v0l5.2-15.1h3.15l5 14.8c0.2 0.6 0.407 1.24 0.62 1.92 0.22 0.687 0.43 1.38 0.63 2.08 0.2 0.7 0.383 1.35 0.55 1.95 0.167 0.6 0.283 1.1 0.35 1.5v0h0.15c0.167-0.833 0.407-1.86 0.72-3.08 0.32-1.213 0.73-2.62 1.23-4.22v0l2.5-8.05c0.133-0.433 0.24-0.893 0.32-1.38 0.087-0.48 0.13-0.853 0.13-1.12v0c0-0.867-0.277-1.493-0.83-1.88-0.547-0.38-1.37-0.57-2.47-0.57v0h-0.35v-2.1h10.7v2.1h-0.65c-0.633 0-1.167 0.09-1.6 0.27-0.433 0.187-0.817 0.563-1.15 1.13-0.333 0.567-0.667 1.4-1 2.5v0l-6.45 20.8h-4l-6.85-20.9-7.1 20.9zM384.88 0h-14.2v-2.1h0.65c0.733 0 1.41-0.077 2.03-0.23 0.613-0.147 1.113-0.463 1.5-0.95 0.38-0.48 0.57-1.203 0.57-2.17v0-15.85c0-1-0.19-1.743-0.57-2.23-0.387-0.48-0.887-0.797-1.5-0.95-0.62-0.147-1.297-0.22-2.03-0.22v0h-0.15v-2.1h8.95v21.1c0 1.033 0.183 1.807 0.55 2.32 0.367 0.52 0.867 0.863 1.5 1.03 0.633 0.167 1.317 0.25 2.05 0.25v0h0.65zM377.58-31.8v0c-0.8 0-1.473-0.233-2.02-0.7-0.553-0.467-0.83-1.267-0.83-2.4v0c0-1.167 0.277-1.977 0.83-2.43 0.547-0.447 1.22-0.67 2.02-0.67v0c0.767 0 1.433 0.223 2 0.67 0.567 0.453 0.85 1.263 0.85 2.43v0c0 1.133-0.283 1.933-0.85 2.4-0.567 0.467-1.233 0.7-2 0.7zM402.4 0.5v0c-2.533 0-4.373-0.577-5.52-1.73-1.153-1.147-1.73-3.153-1.73-6.02v0-16.7h-3.8v-2c0.6 0 1.267-0.127 2-0.38 0.733-0.247 1.367-0.653 1.9-1.22v0c0.567-0.6 1.033-1.333 1.4-2.2 0.367-0.867 0.667-1.933 0.9-3.2v0h2.3v6.15h6.55v2.85h-6.55v16.85c0 1.7 0.35 2.95 1.05 3.75 0.7 0.8 1.617 1.2 2.75 1.2v0c0.6 0 1.15-0.033 1.65-0.1 0.5-0.067 1.017-0.15 1.55-0.25v0 2.2c-0.433 0.2-1.083 0.383-1.95 0.55-0.867 0.167-1.7 0.25-2.5 0.25zM427.23 0h-13.45v-2.1h0.4c0.767 0 1.457-0.083 2.07-0.25 0.62-0.167 1.113-0.51 1.48-1.03 0.367-0.513 0.55-1.287 0.55-2.32v0-26.8c0-1-0.193-1.743-0.58-2.23-0.38-0.48-0.88-0.797-1.5-0.95-0.613-0.147-1.287-0.22-2.02-0.22v0h-0.4v-2.1h9.2v11c0 0.6-0.017 1.223-0.05 1.87-0.033 0.653-0.067 1.213-0.1 1.68-0.033 0.467-0.05 0.7-0.05 0.7v0h0.25c0.5-1 1.107-1.843 1.82-2.53 0.72-0.68 1.537-1.187 2.45-1.52 0.92-0.333 1.947-0.5 3.08-0.5v0c2.867 0 5.057 0.773 6.57 2.32 1.52 1.553 2.28 4.047 2.28 7.48v0 11.8c0 1.033 0.167 1.807 0.5 2.32 0.333 0.52 0.79 0.863 1.37 1.03 0.587 0.167 1.247 0.25 1.98 0.25v0h0.15v2.1h-8.7v-17.25c0-2.167-0.41-3.85-1.23-5.05-0.813-1.2-2.237-1.8-4.27-1.8v0c-1.367 0-2.5 0.333-3.4 1-0.9 0.667-1.567 1.607-2 2.82-0.433 1.22-0.65 2.647-0.65 4.28v0 10.55c0 0.967 0.19 1.69 0.57 2.17 0.387 0.487 0.887 0.803 1.5 0.95 0.62 0.153 1.297 0.23 2.03 0.23v0h0.15zM486.57 0.5v0c-3.3 0-6.083-0.767-8.35-2.3-2.267-1.533-3.973-3.673-5.12-6.42-1.153-2.753-1.73-5.98-1.73-9.68v0c0-3.6 0.61-6.777 1.83-9.53 1.213-2.747 3.013-4.897 5.4-6.45 2.38-1.547 5.32-2.32 8.82-2.32v0c2.267 0 4.15 0.24 5.65 0.72 1.5 0.487 2.617 1.153 3.35 2 0.733 0.853 1.1 1.813 1.1 2.88v0c0 1.067-0.417 1.917-1.25 2.55-0.833 0.633-1.867 0.95-3.1 0.95v0c0-1.033-0.183-2.043-0.55-3.03-0.367-0.98-0.973-1.797-1.82-2.45-0.853-0.647-2.013-0.97-3.48-0.97v0c-2.5 0-4.517 0.607-6.05 1.82-1.533 1.22-2.64 2.997-3.32 5.33-0.687 2.333-1.03 5.167-1.03 8.5v0c0 2.967 0.36 5.59 1.08 7.87 0.713 2.287 1.837 4.063 3.37 5.33 1.533 1.267 3.517 1.9 5.95 1.9v0c1.633 0 3.017-0.2 4.15-0.6 1.133-0.4 2.093-0.927 2.88-1.58 0.78-0.647 1.453-1.337 2.02-2.07v0c0.267 0.167 0.493 0.407 0.68 0.72 0.18 0.32 0.27 0.73 0.27 1.23v0c0 0.633-0.217 1.273-0.65 1.92-0.433 0.653-1.083 1.253-1.95 1.8-0.867 0.553-1.973 1.003-3.32 1.35-1.353 0.353-2.963 0.53-4.83 0.53zM518.95 0h-14.2v-2.1h0.65c0.767 0 1.457-0.083 2.07-0.25 0.62-0.167 1.113-0.51 1.48-1.03 0.367-0.513 0.55-1.287 0.55-2.32v0-26.8c0-1-0.193-1.743-0.58-2.23-0.38-0.48-0.88-0.797-1.5-0.95-0.613-0.147-1.287-0.22-2.02-0.22v0h-0.65v-2.1h9.45v32.3c0 1.033 0.183 1.807 0.55 2.32 0.367 0.52 0.867 0.863 1.5 1.03 0.633 0.167 1.317 0.25 2.05 0.25v0h0.65zM534.72 0.5v0c-1.467 0-2.79-0.293-3.97-0.88-1.187-0.58-2.113-1.463-2.78-2.65-0.667-1.18-1-2.67-1-4.47v0c0-2.667 0.943-4.633 2.83-5.9 1.88-1.267 4.737-1.967 8.57-2.1v0l4.15-0.15v-3c0-1.2-0.1-2.26-0.3-3.18-0.2-0.913-0.633-1.637-1.3-2.17-0.667-0.533-1.683-0.8-3.05-0.8v0c-1.267 0-2.233 0.233-2.9 0.7-0.667 0.467-1.107 1.107-1.32 1.92-0.22 0.82-0.33 1.763-0.33 2.83v0c-1.4 0-2.457-0.243-3.17-0.73-0.72-0.48-1.08-1.287-1.08-2.42v0c0-1.167 0.41-2.1 1.23-2.8 0.813-0.7 1.903-1.21 3.27-1.53 1.367-0.313 2.867-0.47 4.5-0.47v0c3.067 0 5.36 0.65 6.88 1.95 1.513 1.3 2.27 3.533 2.27 6.7v0 12.95c0 0.933 0.1 1.657 0.3 2.17 0.2 0.52 0.533 0.887 1 1.1 0.467 0.22 1.067 0.33 1.8 0.33v0h0.15v2.1h-6.75l-0.8-4.3h-0.4c-0.7 0.933-1.383 1.757-2.05 2.47-0.667 0.72-1.44 1.287-2.32 1.7-0.887 0.42-2.03 0.63-3.43 0.63zM535.87-2.6v0c1.367 0 2.543-0.283 3.53-0.85 0.98-0.567 1.747-1.377 2.3-2.43 0.547-1.047 0.82-2.27 0.82-3.67v0-4.05l-3.2 0.15c-1.9 0.067-3.39 0.35-4.47 0.85-1.087 0.5-1.863 1.19-2.33 2.07-0.467 0.887-0.7 1.98-0.7 3.28v0c0 1.033 0.15 1.893 0.45 2.58 0.3 0.68 0.75 1.193 1.35 1.54 0.6 0.353 1.35 0.53 2.25 0.53zM573.59 0h-14.45v-2.1h0.15c0.767 0 1.46-0.083 2.08-0.25 0.613-0.167 1.103-0.51 1.47-1.03 0.367-0.513 0.55-1.287 0.55-2.32v0-15.6c0-1-0.19-1.743-0.57-2.23-0.387-0.48-0.887-0.797-1.5-0.95-0.62-0.147-1.297-0.22-2.03-0.22v0h-0.15v-2.1h7.7l0.95 4.95h0.25c0.433-1 0.9-1.917 1.4-2.75 0.5-0.833 1.167-1.493 2-1.98 0.833-0.48 1.983-0.72 3.45-0.72v0c1.833 0 3.193 0.317 4.08 0.95 0.88 0.633 1.32 1.533 1.32 2.7v0c0 1.033-0.357 1.883-1.07 2.55-0.72 0.667-1.913 1-3.58 1v0c0-1.367-0.2-2.36-0.6-2.98-0.4-0.613-1.083-0.92-2.05-0.92v0c-0.933 0-1.717 0.367-2.35 1.1-0.633 0.733-1.133 1.667-1.5 2.8-0.367 1.133-0.633 2.31-0.8 3.53-0.167 1.213-0.25 2.303-0.25 3.27v0 7.85c0 0.967 0.193 1.69 0.58 2.17 0.38 0.487 0.88 0.803 1.5 0.95 0.613 0.153 1.287 0.23 2.02 0.23v0h1.4zM601.27 0h-14.2v-2.1h0.65c0.733 0 1.407-0.077 2.02-0.23 0.62-0.147 1.12-0.463 1.5-0.95 0.387-0.48 0.58-1.203 0.58-2.17v0-15.85c0-1-0.193-1.743-0.58-2.23-0.38-0.48-0.88-0.797-1.5-0.95-0.613-0.147-1.287-0.22-2.02-0.22v0h-0.15v-2.1h8.95v21.1c0 1.033 0.183 1.807 0.55 2.32 0.367 0.52 0.867 0.863 1.5 1.03 0.633 0.167 1.317 0.25 2.05 0.25v0h0.65zM593.97-31.8v0c-0.8 0-1.477-0.233-2.03-0.7-0.547-0.467-0.82-1.267-0.82-2.4v0c0-1.167 0.273-1.977 0.82-2.43 0.553-0.447 1.23-0.67 2.03-0.67v0c0.767 0 1.433 0.223 2 0.67 0.567 0.453 0.85 1.263 0.85 2.43v0c0 1.133-0.283 1.933-0.85 2.4-0.567 0.467-1.233 0.7-2 0.7zM618.79 0.5v0c-2.533 0-4.373-0.577-5.52-1.73-1.153-1.147-1.73-3.153-1.73-6.02v0-16.7h-3.8v-2c0.6 0 1.267-0.127 2-0.38 0.733-0.247 1.367-0.653 1.9-1.22v0c0.567-0.6 1.033-1.333 1.4-2.2 0.367-0.867 0.667-1.933 0.9-3.2v0h2.3v6.15h6.55v2.85h-6.55v16.85c0 1.7 0.35 2.95 1.05 3.75 0.7 0.8 1.617 1.2 2.75 1.2v0c0.6 0 1.15-0.033 1.65-0.1 0.5-0.067 1.017-0.15 1.55-0.25v0 2.2c-0.433 0.2-1.083 0.383-1.95 0.55-0.867 0.167-1.7 0.25-2.5 0.25zM631.16 12v-2.35c1.7 0 3.167-0.25 4.4-0.75 1.233-0.5 2.283-1.19 3.15-2.07 0.867-0.887 1.6-1.93 2.2-3.13 0.6-1.2 1.1-2.5 1.5-3.9v0l-9.25-21.85c-0.3-0.7-0.6-1.243-0.9-1.63-0.3-0.38-0.65-0.647-1.05-0.8-0.4-0.147-0.933-0.22-1.6-0.22v0h-0.15v-2.1h12v2.1h-0.15c-1 0-1.75 0.19-2.25 0.57-0.5 0.387-0.75 0.997-0.75 1.83v0c0 0.267 0.033 0.55 0.1 0.85 0.067 0.3 0.167 0.633 0.3 1v0l3.65 8.9c0.333 0.767 0.66 1.607 0.98 2.52 0.313 0.92 0.603 1.797 0.87 2.63 0.267 0.833 0.45 1.533 0.55 2.1v0c0.233-0.967 0.543-1.967 0.93-3 0.38-1.033 0.737-2.05 1.07-3.05v0l3.35-9.75c0.167-0.4 0.283-0.793 0.35-1.18 0.067-0.38 0.1-0.703 0.1-0.97v0c0-0.867-0.273-1.493-0.82-1.88-0.553-0.38-1.38-0.57-2.48-0.57v0h-0.15v-2.1h10.4v2.1h-0.15c-0.633 0-1.167 0.1-1.6 0.3-0.433 0.2-0.807 0.583-1.12 1.15-0.32 0.567-0.68 1.383-1.08 2.45v0l-7.6 21c-0.867 2.433-1.7 4.417-2.5 5.95-0.8 1.533-1.69 2.727-2.67 3.58-0.987 0.847-2.213 1.437-3.68 1.77-1.467 0.333-3.3 0.5-5.5 0.5v0z" fill="#4a90e2" fill-rule="nonzero" stroke="none" stroke-width="1" stroke-linecap="butt" stroke-linejoin="miter" stroke-miterlimit="10" stroke-dasharray="" stroke-dashoffset="0" font-family="none" font-weight="none" font-size="none" text-anchor="none" style="mix-blend-mode: normal" data-fill-palette-color="secondary" id="text-1"></path></g></g><g transform="matrix(1,0,0,1,29.00275349297314,49.331196500000004)"><svg viewBox="0 0 312.86680301405374 53.962726999999994" height="53.962726999999994" width="312.86680301405374"><g><svg viewBox="0 0 312.86680301405374 53.962726999999994" height="53.962726999999994" width="312.86680301405374"><g><svg viewBox="0 0 312.86680301405374 53.962726999999994" height="53.962726999999994" width="312.86680301405374"><g id="textblocktransform"><svg viewBox="0 0 312.86680301405374 53.962726999999994" height="53.962726999999994" width="312.86680301405374" id="textblock"><g><svg viewBox="0 0 312.86680301405374 53.962726999999994" height="53.962726999999994" width="312.86680301405374"><g><svg><g></g><g></g></svg></g><g><svg><g><svg></svg></g><g></g></svg></g><g id="text-0"><svg viewBox="0 0 312.86680301405374 53.962726999999994" height="53.962726999999994" width="312.86680301405374"><g transform="matrix(1,0,0,1,0,0)"><svg width="238.599179" viewBox="4.3 -36.25 162.04 36.65" height="53.962726999999994" data-palette-color="#31302e"><path d="M25.65 0L6.45 0 6.45-2.05Q6.45-2.85 7.3-2.95L7.3-2.95 14.15-3.4 14.15-27.85Q14.15-28.4 14.15-28.95 14.15-29.5 14.2-30.05L14.2-30.05 7.8-24.6Q7.55-24.4 7.3-24.3 7.05-24.2 6.85-24.2L6.85-24.2Q6.45-24.2 6.15-24.38 5.85-24.55 5.7-24.75L5.7-24.75 4.3-26.7 14.95-35.9 18.6-35.9 18.6-3.4 24.8-2.95Q25.65-2.85 25.65-2.05L25.65-2.05 25.65 0ZM44.4-13.1L32.05-13.1 32.05-16.9 44.4-16.9 44.4-13.1ZM65.55 0.4L65.55 0.4Q61.6 0.4 58.37-0.95 55.15-2.3 52.8-4.75L52.8-4.75Q50.5-7.15 49.2-10.53 47.9-13.9 47.9-17.9L47.9-17.9Q47.9-21.95 49.2-25.3 50.5-28.65 52.8-31.1L52.8-31.1Q55.15-33.55 58.37-34.9 61.6-36.25 65.55-36.25L65.55-36.25Q69.5-36.25 72.8-34.9 76.09-33.55 78.4-31.1L78.4-31.1Q80.75-28.65 82-25.3 83.25-21.95 83.25-17.9L83.25-17.9Q83.25-13.9 82-10.53 80.75-7.15 78.4-4.75L78.4-4.75Q76.09-2.3 72.8-0.95 69.5 0.4 65.55 0.4ZM65.55-3.85L65.55-3.85Q69.5-3.85 72.34-5.55 75.2-7.25 76.72-10.43 78.25-13.6 78.25-17.9L78.25-17.9Q78.25-22.2 76.72-25.38 75.2-28.55 72.34-30.3 69.5-32.05 65.55-32.05L65.55-32.05Q61.65-32.05 58.8-30.3 55.95-28.55 54.4-25.38 52.85-22.2 52.85-17.9L52.85-17.9Q52.85-13.6 54.4-10.45 55.95-7.3 58.8-5.58 61.65-3.85 65.55-3.85ZM94.24 0L89.99 0 89.99-35.85 92.49-35.85Q93.14-35.85 93.49-35.7 93.84-35.55 94.19-35L94.19-35 114.94-8Q114.84-8.65 114.82-9.28 114.79-9.9 114.79-10.45L114.79-10.45 114.79-35.85 119.04-35.85 119.04 0 116.59 0Q116.04 0 115.67-0.2 115.29-0.4 114.89-0.9L114.89-0.9 94.14-27.85Q94.19-27.25 94.22-26.65 94.24-26.05 94.24-25.55L94.24-25.55 94.24 0ZM91.49 0L86.39 0 86.39-2.05Q86.39-2.5 86.59-2.78 86.79-3.05 87.19-3.1L87.19-3.1 90.94-3.9 91.49 0ZM98.34 0L93.24 0 93.79-3.9 97.54-3.1Q97.94-3.05 98.14-2.78 98.34-2.5 98.34-2.05L98.34-2.05 98.34 0ZM86.39-35.85L91.49-35.85 90.94-31.95 87.19-32.75Q86.79-32.85 86.59-33.1 86.39-33.35 86.39-33.8L86.39-33.8 86.39-35.85ZM110.69-35.85L115.79-35.85 115.24-31.95 111.49-32.75Q111.09-32.85 110.89-33.1 110.69-33.35 110.69-33.8L110.69-33.8 110.69-35.85ZM117.54-35.85L122.64-35.85 122.64-33.8Q122.64-33.35 122.44-33.1 122.24-32.85 121.84-32.75L121.84-32.75 118.09-31.95 117.54-35.85ZM138.69-13.1L126.34-13.1 126.34-16.9 138.69-16.9 138.69-13.1ZM166.34 0L147.14 0 147.14-2.05Q147.14-2.85 147.99-2.95L147.99-2.95 154.84-3.4 154.84-27.85Q154.84-28.4 154.84-28.95 154.84-29.5 154.89-30.05L154.89-30.05 148.49-24.6Q148.24-24.4 147.99-24.3 147.74-24.2 147.54-24.2L147.54-24.2Q147.14-24.2 146.84-24.38 146.54-24.55 146.39-24.75L146.39-24.75 144.99-26.7 155.64-35.9 159.29-35.9 159.29-3.4 165.49-2.95Q166.34-2.85 166.34-2.05L166.34-2.05 166.34 0Z" opacity="1" transform="matrix(1,0,0,1,0,0)" fill="#31302e" class="wordmark-text-0" data-fill-palette-color="primary"></path></svg></g><g><svg xmlns="http://www.w3.org/2000/svg" xmlns:xlink="http://www.w3.org/1999/xlink" version="1.1" x="252.599479" y="0" viewBox="5.421734962878724 14.522457300345891 89.54153007424256 80.17454269965411" enable-background="new 0 0 100 100" xml:space="preserve" height="53.962726999999994" width="60.26732401405373" class="icon-dxe-0" data-fill-palette-color="accent" id="dxe-0"><g fill="#4a90e2" data-fill-palette-color="accent"><path d="M63.313 50.225C63.819 50.225 64.234 50.622 64.262 51.121L63.274 65.653H36.986L35.998 51.121A0.95 0.95 0 0 1 36.947 50.225zM63.313 47.947H36.948A3.23 3.23 0 0 0 33.719 51.176L34.858 67.932H65.403L66.542 51.176A3.23 3.23 0 0 0 63.313 47.947" fill="#4a90e2" data-fill-palette-color="accent"></path><path fill-rule="evenodd" clip-rule="evenodd" d="M64.416 72.262H35.827A0.97 0.97 0 0 1 34.858 71.293V69.2H65.385V71.293A0.97 0.97 0 0 1 64.416 72.262" fill="#4a90e2" data-fill-palette-color="accent"></path><circle cx="50.121" cy="57.939" r="1.9" fill="#4a90e2" data-fill-palette-color="accent"></circle><circle cx="82.075" cy="21.12" r="6.4" fill="#4a90e2" data-fill-palette-color="accent"></circle><path d="M31.199 42.809L30.164 33.025A3.444 3.444 0 0 0 26.75 30.008L9.798 29.989A3.444 3.444 0 0 0 6.365 33.12C6.363 31.947 5.725 42.579 5.423 52.328 5.419 52.465 5.424 52.599 5.445 52.734 5.97 56.194 7.318 60.642 14.369 62.907 18.586 64.261 19.483 60.919 17.865 58.927 16.277 56.973 14.858 55.424 13.902 54.026 13.009 52.72 13.181 49.002 13.211 48.549 14.448 47.827 16.58 46.947 17.529 46.566 21.543 44.952 26.18 43.709 31.199 42.809" fill="#4a90e2" data-fill-palette-color="accent"></path><path d="M94.796 58.374A11.6 11.6 0 0 1 92.346 61.333C91.966 64.63 87.772 68.157 80.958 70.861 72.761 74.114 61.802 75.905 50.099 75.905S27.437 74.114 19.24 70.861C12.301 68.107 8.076 64.5 7.832 61.152A11.5 11.5 0 0 1 5.473 58.171C5.199 58.898 6.923 84.911 6.923 84.911H12.278L12.134 70.523C16.831 73.419 23.571 75.742 31.551 77.172L32.781 94.697H38.068L39.423 78.247C42.847 78.577 46.419 78.756 50.099 78.756 53.648 78.756 57.096 78.588 60.408 78.281L61.55 94.697H66.837L68.277 77.238C76.421 75.813 83.297 73.462 88.067 70.52L87.941 84.666H93.296C93.297 84.666 95.026 59.035 94.796 58.374" fill="#4a90e2" data-fill-palette-color="accent"></path><path d="M69.186 42.809L70.221 33.025A3.444 3.444 0 0 1 73.635 30.008L90.587 29.99A3.444 3.444 0 0 1 94.02 33.121C94.022 31.948 94.66 42.58 94.962 52.329 94.966 52.466 94.961 52.6 94.94 52.735 94.415 56.195 93.067 60.643 86.016 62.908 81.799 64.262 80.902 60.92 82.52 58.928 84.108 56.974 85.527 55.425 86.483 54.027 87.376 52.721 87.204 49.003 87.174 48.55 85.937 47.828 83.805 46.948 82.856 46.567 78.842 44.952 74.205 43.709 69.186 42.809" fill="#4a90e2" data-fill-palette-color="accent"></path><path d="M15.209 51.762A42 42 0 0 1 18.94 50.075C27.23 46.785 38.296 44.973 50.099 44.973S72.968 46.785 81.258 50.075A41 41 0 0 1 85.177 51.859V49.581C76.904 45.529 64.265 42.938 50.099 42.938 36.041 42.938 23.486 45.489 15.209 49.488z" fill="#4a90e2" data-fill-palette-color="accent"></path><path d="M15.768 15.02A6.2 6.2 0 0 1 17.585 14.553C20.992 14.215 24.028 16.721 24.369 20.153S22.226 26.643 18.819 26.981C16.657 27.196 14.646 26.26 13.377 24.671 11.655 26.118 9.469 30.843 6.016 24.465 10.428 28.001 10.274 16.932 15.768 15.02" fill="#4a90e2" data-fill-palette-color="accent"></path><path d="M42.892 31.367L31.548 25.808V23.993L42.892 17.697V20.743L35.078 24.767 42.892 28.334z" fill="#4a90e2" data-fill-palette-color="accent"></path><path d="M54.851 15.387L48.626 33.944H45.462L51.687 15.387z" fill="#4a90e2" data-fill-palette-color="accent"></path><path d="M57.842 28.333L65.656 24.766 57.842 20.742V17.696L69.186 23.992V25.807L57.842 31.366z" fill="#4a90e2" data-fill-palette-color="accent"></path></g></svg></g></svg></g></svg></g></svg></g></svg></g><g></g></svg></g></svg></g></svg></g><defs></defs></svg><rect width="370.87231" height="152.62512" fill="none" stroke="none" visibility="hidden"></rect></g></svg></g></svg>